<svg xmlns="http://www.w3.org/2000/svg" viewBox="0 0 64 64">
  <defs>
    <linearGradient id="bg" x1="10" y1="6" x2="54" y2="58" gradientUnits="userSpaceOnUse">
      <stop stop-color="#ffb11a"/>
      <stop offset=".52" stop-color="#ff8124"/>
      <stop offset="1" stop-color="#f04424"/>
    </linearGradient>
  </defs>
  <rect width="64" height="64" rx="16" fill="url(#bg)"/>
  <circle cx="31" cy="20" r="7" fill="#fff"/>
  <path fill="#fff" d="M17 43v-5.5C17 29.5 23.4 24 31 24c3 0 5.7.8 8 2.3L28.9 36.4l-4.3-4.3a4.1 4.1 0 0 0-5.8 5.8l7.2 7.2c.8.8 1.8 1.2 2.9 1.2H20a3 3 0 0 1-3-3.3Z"/>
  <path fill="#fff" d="M31.2 46.5a4 4 0 0 1-5.7 0l-7.1-7.1a4 4 0 0 1 5.7-5.7l4.3 4.3 14-14a4 4 0 1 1 5.7 5.7L31.2 46.5Z"/>
</svg>
